<?xml version="1.0" encoding="UTF-8" standalone="no"?>
<!DOCTYPE svg PUBLIC "-//W3C//DTD SVG 1.1//EN" "http://www.w3.org/Graphics/SVG/1.1/DTD/svg11.dtd">
<svg xmlns="http://www.w3.org/2000/svg" version="1.1" viewBox="0.00 0.00 756.00 667.00">
<path fill="#000000" d="
  M 98.95 307.39
  C 99.18 291.86 98.65 276.12 98.62 261.14
  C 98.61 254.24 99.30 248.44 101.27 241.48
  C 103.40 233.99 105.42 226.75 108.10 219.48
  C 124.30 175.68 151.88 135.17 187.90 104.15
  Q 242.11 57.46 308.79 39.80
  Q 319.17 37.04 328.75 35.34
  Q 368.40 28.28 409.22 31.96
  C 438.46 34.59 469.26 43.26 496.83 56.86
  Q 530.68 73.54 561.69 99.22
  Q 574.22 109.59 584.65 119.75
  Q 592.88 127.77 607.02 145.62
  Q 629.13 173.51 643.47 206.95
  Q 653.85 231.16 656.92 255.23
  Q 658.12 264.71 658.35 275.45
  Q 658.68 291.50 659.05 306.43
  Q 659.06 307.05 659.65 307.25
  C 670.22 310.84 680.87 316.13 689.08 323.00
  C 693.85 326.99 698.98 331.63 703.20 336.68
  C 716.54 352.63 720.98 372.19 721.23 393.47
  Q 721.61 426.54 721.43 436.57
  C 721.28 444.66 721.07 452.55 717.53 459.84
  Q 715.50 464.01 713.40 468.15
  C 706.01 482.75 694.61 494.60 680.40 502.63
  C 673.66 506.44 666.02 508.79 658.36 510.03
  A 0.32 0.32 0.0 0 0 658.09 510.33
  Q 657.67 520.55 657.64 529.85
  Q 657.62 537.25 655.90 541.25
  Q 652.88 548.25 645.23 551.38
  Q 640.27 553.40 634.61 551.36
  C 626.66 548.48 622.41 538.40 622.40 530.50
  Q 622.29 423.01 622.23 316.50
  Q 622.22 305.43 621.78 294.34
  Q 621.19 279.40 617.51 264.60
  Q 606.96 222.19 581.55 185.65
  Q 571.27 170.87 565.05 163.96
  Q 559.80 158.11 554.33 151.90
  C 544.60 140.84 533.33 131.97 521.70 123.13
  Q 489.26 98.48 452.63 86.92
  Q 433.92 81.01 412.97 77.79
  C 379.84 72.69 345.37 75.52 313.15 84.87
  Q 268.77 97.74 230.16 127.49
  Q 212.21 141.32 192.10 163.34
  C 187.77 168.08 184.07 173.36 180.10 178.50
  Q 170.73 190.62 162.87 205.48
  C 155.50 219.40 148.44 233.29 143.15 248.19
  Q 137.32 264.62 135.34 282.01
  Q 135.03 284.74 135.02 287.99
  Q 135.00 291.00 134.99 294.00
  Q 134.53 415.86 134.32 529.25
  C 134.31 534.66 132.67 542.78 128.79 546.54
  C 123.38 551.80 115.44 553.93 108.55 550.11
  Q 101.35 546.12 99.40 538.92
  Q 98.61 536.04 98.90 525.83
  Q 99.12 518.24 99.00 510.63
  A 0.51 0.50 2.6 0 0 98.55 510.14
  C 88.68 509.13 79.62 505.54 71.56 499.76
  Q 60.24 491.64 52.21 481.32
  Q 35.83 460.29 35.04 432.42
  Q 34.55 415.14 34.80 396.08
  C 34.96 383.36 36.76 369.99 41.14 358.09
  C 49.67 334.93 70.11 315.73 93.76 308.40
  C 95.27 307.93 96.69 307.96 98.24 308.05
  Q 98.94 308.09 98.95 307.39
  Z
  M 92.94 345.79
  C 86.45 349.88 82.99 358.09 82.95 365.72
  Q 82.74 408.59 82.67 450.82
  C 82.66 461.87 86.67 471.35 98.11 474.65
  A 0.70 0.70 0.0 0 0 99.01 473.98
  L 99.01 344.95
  A 0.87 0.87 0.0 0 0 98.07 344.08
  Q 95.30 344.31 92.94 345.79
  Z
  M 672.34 460.06
  C 672.58 458.79 673.09 457.48 673.09 456.16
  Q 673.24 414.57 673.34 366.53
  Q 673.36 355.03 665.04 347.03
  Q 662.08 344.17 657.95 344.11
  Q 657.00 344.10 657.00 345.05
  L 657.00 474.27
  A 0.55 0.55 0.0 0 0 657.69 474.80
  C 665.09 472.75 670.85 467.85 672.34 460.06
  Z"
/>
<path fill="#000000" d="
  M 218.08 544.73
  Q 215.14 550.89 211.25 554.69
  Q 204.54 561.25 196.04 563.82
  Q 191.74 565.11 186.27 565.17
  Q 181.09 565.23 176.59 563.88
  Q 157.04 558.02 151.48 538.10
  Q 149.83 532.19 149.82 523.04
  Q 149.71 418.70 149.86 300.25
  C 149.87 294.14 149.83 288.11 153.32 283.00
  C 157.19 277.32 164.07 270.34 170.49 267.50
  C 184.34 261.38 200.10 263.42 210.67 273.98
  C 216.61 279.91 221.23 288.29 221.89 296.87
  Q 222.18 300.69 222.18 304.25
  Q 222.22 411.50 222.27 518.75
  C 222.27 523.70 222.54 529.14 221.81 533.75
  Q 221.04 538.53 218.08 544.73
  Z
  M 177.80 338.17
  C 177.82 342.82 180.84 348.19 186.40 346.97
  Q 194.38 345.23 194.44 337.01
  Q 194.58 318.27 194.48 301.63
  Q 194.47 298.58 193.29 295.63
  Q 192.21 292.94 189.48 291.90
  Q 183.15 289.50 179.20 295.28
  C 177.93 297.13 177.79 299.84 177.78 302.06
  Q 177.74 320.28 177.80 338.17
  Z
  M 188.01 538.44
  C 193.07 537.00 193.97 533.57 194.10 528.49
  Q 194.38 517.57 194.22 505.59
  C 194.17 501.05 193.47 498.08 190.75 494.70
  Q 189.46 493.09 187.74 492.91
  Q 178.44 491.94 177.82 501.19
  Q 177.21 510.34 177.66 527.97
  Q 177.83 534.60 182.52 538.21
  C 184.24 539.53 186.14 538.98 188.01 538.44
  Z"
/>
<path fill="#000000" d="
  M 533.71 302.75
  C 533.46 293.25 536.87 284.36 542.60 276.77
  Q 545.42 273.03 549.37 270.49
  Q 556.07 266.17 561.09 265.01
  Q 577.97 261.11 591.91 271.41
  Q 595.70 274.21 600.50 281.01
  Q 604.29 286.37 605.52 292.28
  Q 606.33 296.12 606.31 304.27
  C 606.20 353.83 605.94 403.84 606.33 453.99
  Q 606.62 490.78 606.50 528.39
  C 606.48 534.57 606.29 542.30 602.48 547.51
  C 597.99 553.64 592.06 559.03 585.17 562.04
  Q 571.02 568.22 556.39 562.94
  Q 551.85 561.30 547.71 558.27
  Q 543.94 555.51 541.11 551.34
  C 536.94 545.19 534.05 537.25 533.98 529.58
  Q 533.95 526.41 533.95 523.25
  Q 533.83 403.63 533.53 319.08
  C 533.51 313.57 533.85 308.20 533.71 302.75
  Z
  M 565.87 293.15
  Q 561.88 295.02 560.98 299.76
  Q 559.70 306.56 564.64 311.38
  Q 565.80 312.51 567.46 312.74
  C 570.60 313.16 574.14 312.91 576.55 310.52
  Q 584.55 302.58 576.41 294.35
  C 573.85 291.76 568.88 291.74 565.87 293.15
  Z"
/>
<path fill="#000000" d="
  M 384.95 410.41
  C 383.17 408.94 382.80 403.86 382.78 401.71
  Q 382.62 376.50 382.52 349.22
  C 382.51 345.05 386.36 340.55 390.75 342.45
  C 394.45 344.06 394.17 349.94 394.19 353.36
  Q 394.34 379.94 394.25 406.64
  C 394.23 411.98 388.61 413.43 384.95 410.41
  Z"
/>
<path fill="#000000" d="
  M 473.26 370.88
  A 0.50 0.49 46.0 0 0 473.84 370.90
  C 480.49 366.61 488.02 364.75 494.75 370.37
  Q 498.28 373.31 499.91 378.27
  Q 501.03 381.70 501.15 387.25
  Q 501.35 396.42 501.46 404.63
  C 501.50 407.00 498.74 412.66 495.31 411.91
  C 493.20 411.45 489.88 410.18 489.84 407.54
  Q 489.65 397.15 489.40 387.13
  Q 489.36 385.54 489.02 383.97
  Q 487.68 377.68 480.70 378.85
  C 475.98 379.63 473.92 382.54 473.96 386.97
  Q 474.04 396.35 474.04 405.11
  C 474.04 409.40 470.90 413.42 466.24 411.47
  Q 462.48 409.90 462.49 405.76
  Q 462.52 376.35 462.59 348.60
  C 462.61 341.58 467.79 340.04 472.47 344.57
  Q 472.90 344.98 472.99 345.56
  Q 473.21 346.96 473.18 348.36
  Q 472.99 359.22 473.01 370.37
  Q 473.01 370.69 473.26 370.88
  Z"
/>
<path fill="#000000" d="
  M 414.28 361.25
  C 412.58 362.00 410.57 363.26 408.64 362.72
  C 404.73 361.62 404.42 358.30 404.72 354.94
  C 405.08 351.05 407.04 349.76 410.82 350.12
  C 416.49 350.66 416.32 356.53 414.92 360.55
  Q 414.75 361.04 414.28 361.25
  Z"
/>
<path fill="#000000" d="
  M 435.31 379.69
  Q 435.63 381.86 436.73 382.27
  C 444.40 385.10 450.10 386.39 454.56 392.03
  C 457.47 395.71 457.65 401.11 454.82 404.70
  C 451.48 408.95 446.66 412.20 440.96 412.24
  C 435.03 412.28 428.36 411.53 423.79 407.92
  A 2.03 2.00 -72.9 0 1 423.04 406.48
  C 422.89 404.07 423.78 398.72 427.31 399.10
  Q 432.66 399.69 437.65 401.44
  C 439.73 402.18 441.49 402.33 443.30 401.34
  A 1.15 1.15 0.0 0 0 443.87 400.07
  L 443.03 396.58
  Q 442.87 395.89 442.18 395.70
  C 436.36 394.15 429.59 391.99 425.64 387.57
  C 423.29 384.94 423.61 380.16 423.81 376.72
  Q 423.92 374.74 425.39 372.84
  C 430.78 365.86 440.76 365.31 448.63 367.99
  Q 451.11 368.84 453.74 372.03
  C 455.58 374.26 455.04 377.27 453.59 379.45
  Q 453.22 380.00 452.56 380.02
  Q 446.58 380.15 440.39 378.49
  Q 438.05 377.86 435.70 378.95
  Q 435.23 379.17 435.31 379.69
  Z"
/>
<path fill="#000000" d="
  M 256.19 395.23
  Q 256.83 396.00 258.66 398.23
  Q 260.56 400.54 263.52 400.98
  Q 270.25 402.00 276.31 399.29
  Q 276.85 399.05 277.34 399.38
  C 282.02 402.51 283.43 408.43 276.81 410.82
  C 271.68 412.67 267.39 412.49 262.18 411.89
  C 255.42 411.12 250.71 406.87 246.64 401.70
  Q 244.81 399.39 244.23 396.43
  Q 242.91 389.70 244.03 383.34
  C 245.09 377.31 249.46 373.23 254.15 369.77
  Q 257.66 367.17 261.46 366.94
  C 271.74 366.31 282.52 371.05 282.86 382.43
  Q 283.01 387.53 283.00 392.45
  Q 283.00 393.00 282.45 393.00
  L 257.24 393.00
  Q 254.36 393.00 256.19 395.23
  Z
  M 272.78 382.84
  C 270.81 373.75 256.46 376.42 256.23 384.45
  Q 256.21 385.00 256.76 385.00
  L 271.03 385.01
  A 1.79 1.79 0.0 0 0 272.78 382.84
  Z"
/>
<path fill="#000000" d="
  M 312.70 379.54
  C 308.34 377.92 305.05 378.64 302.25 382.08
  Q 300.97 383.65 300.75 385.66
  C 300.02 392.41 300.41 399.27 300.37 405.97
  Q 300.34 410.59 295.75 411.73
  C 293.56 412.28 290.17 411.12 289.96 408.44
  Q 288.82 393.58 288.56 375.09
  C 288.51 372.05 289.53 369.14 292.23 367.49
  C 294.51 366.11 298.67 368.60 300.84 369.61
  A 2.67 2.67 0.0 0 0 303.25 369.51
  Q 314.95 362.92 323.65 371.81
  C 327.28 375.52 327.81 382.61 328.01 387.54
  Q 328.47 399.15 328.07 406.23
  C 327.84 410.23 323.84 413.42 320.02 411.41
  C 317.26 409.96 316.50 408.17 316.47 405.29
  Q 316.36 395.52 316.15 386.81
  C 316.10 384.34 315.26 380.49 312.70 379.54
  Z"
/>
<path fill="#000000" d="
  M 362.36 409.09
  Q 361.17 408.78 360.01 409.29
  C 356.59 410.81 350.86 410.41 347.35 409.86
  C 343.79 409.30 341.59 406.63 339.29 404.14
  C 336.35 400.95 334.05 397.19 333.77 392.82
  C 333.19 383.85 334.44 375.46 342.60 370.10
  C 349.13 365.82 355.84 366.59 363.01 368.90
  Q 363.79 369.15 364.47 368.69
  L 366.53 367.28
  A 1.42 1.40 -62.9 0 1 367.23 367.05
  Q 374.01 366.78 374.14 373.91
  Q 374.47 391.88 374.42 411.43
  C 374.40 419.11 371.39 426.54 364.40 430.38
  Q 358.23 433.77 350.81 434.18
  C 344.56 434.53 338.75 432.14 334.57 427.75
  A 1.28 1.27 -51.0 0 1 334.41 426.20
  C 335.49 424.43 337.02 420.57 339.55 421.15
  Q 346.04 422.62 353.92 422.05
  Q 356.57 421.87 358.67 421.20
  Q 359.18 421.04 359.50 420.62
  C 361.70 417.83 362.43 414.23 362.90 409.87
  Q 362.97 409.25 362.36 409.09
  Z
  M 350.78 399.25
  Q 355.10 401.61 359.91 398.79
  C 362.04 397.54 363.95 394.91 364.06 392.32
  Q 364.21 388.87 363.75 386.02
  C 362.93 380.96 359.69 377.34 354.23 377.59
  Q 351.60 377.71 349.04 379.73
  Q 343.91 383.77 344.77 391.32
  C 345.14 394.48 348.32 397.91 350.78 399.25
  Z"
/>
<path fill="#000000" d="
  M 404.56 375.28
  C 404.54 372.05 405.24 368.71 408.82 367.86
  Q 412.93 366.89 414.61 370.18
  Q 416.18 373.29 416.24 377.18
  Q 416.42 390.44 416.36 404.95
  C 416.35 408.18 415.73 411.35 411.97 412.09
  C 408.66 412.74 405.23 411.23 404.87 407.70
  Q 404.69 405.97 404.69 404.30
  Q 404.66 388.92 404.56 375.28
  Z"
/>
<path fill="#838485" d="
  M 513.31 612.16
  C 517.64 612.93 521.73 614.97 525.32 617.55
  C 529.12 620.29 523.41 625.15 521.04 626.27
  Q 516.33 628.50 510.29 629.61
  Q 502.77 631.00 496.48 631.50
  Q 472.05 633.44 446.91 635.22
  C 438.08 635.85 429.37 636.15 421.00 636.17
  Q 374.32 636.25 339.75 636.06
  Q 303.12 635.86 266.44 632.48
  Q 249.68 630.94 237.36 629.14
  C 233.44 628.57 227.93 626.88 225.48 623.52
  C 223.56 620.88 225.07 617.56 227.65 616.05
  C 230.33 614.49 233.79 613.58 236.92 613.04
  Q 259.07 609.20 276.75 608.25
  C 291.57 607.45 306.64 606.31 321.81 605.93
  C 330.65 605.71 339.21 605.30 348.06 605.16
  Q 390.64 604.45 431.88 605.79
  C 446.12 606.25 460.40 607.46 474.74 608.28
  Q 485.13 608.87 496.01 609.77
  C 501.86 610.25 507.55 611.12 513.31 612.16
  Z"
/>
</svg>
