<svg width="553" height="636" xmlns="http://www.w3.org/2000/svg">

 <g>
  <title>background</title>
  <rect fill="none" id="canvas_background" height="402" width="582" y="-1" x="-1"/>
 </g>
 <g>
  <title>Layer 1</title>
  <path id="svg_1" fill="#010101" d="m89,31c4.03491,2.22131 6.53981,4.61942 8,9c0.08718,2.22092 0.11155,4.44446 0.10439,6.66708c-0.00071,0.68099 -0.00142,1.36198 -0.00215,2.06361c-0.00338,2.2869 -0.01373,4.57373 -0.02387,6.86062c-0.00352,1.63763 -0.00648,3.27526 -0.00894,4.91289c-0.00568,3.5293 -0.01369,7.05859 -0.02303,10.58788c-0.01316,5.58006 -0.01145,11.16004 -0.00577,16.7401c0.00092,0.94136 0.00184,1.88272 0.00279,2.8526c0.00297,2.89934 0.00614,5.79869 0.00931,8.69803c0.01281,12.01836 0.01476,24.03639 -0.02856,36.05469c-0.03147,8.76202 -0.03483,17.52354 -0.00524,26.28557c0.01456,4.63777 0.01468,9.27456 -0.0194,13.91226c-0.03178,4.36221 -0.02642,8.72279 0.0075,13.08497c0.00582,1.6008 -0.00204,3.20171 -0.02459,4.80235c-0.49085,8.29808 -0.49085,8.29808 2.79173,15.44444c2.09633,1.36151 2.09633,1.36151 4.30901,2.1729c1.91682,0.86001 1.91682,0.86001 3.97932,4.17251c1.24991,4.91633 1.51048,8.94689 -1.07812,13.45703c-2.76649,3.59818 -4.63785,4.49186 -8.98438,6.23047c0,13.86 0,27.72 0,42c1.98,0.99 3.96,1.98 6,3c3.1645,3.84872 4.79155,6.99713 5,12c-1.02265,4.55545 -2.74634,7.65338 -6,11c-1.65,0.66 -3.3,1.32 -5,2c-0.33,63.36 -0.66,126.72 -1,192c121.44,0 242.88,0 368,0c0,-136.62 0,-273.24 0,-414c-86.28348,0.11882 -86.28348,0.11882 -172.56689,0.27026c-16.66724,0.01355 -16.66724,0.01355 -24.4636,0.01607c-5.45894,0.0028 -10.91779,0.01382 -16.37671,0.0304c-6.29417,0.01908 -12.58825,0.02778 -18.88245,0.0236c-3.22046,-0.0018 -6.44069,0.00275 -9.66113,0.01732c-3.44789,0.01487 -6.89529,0.01134 -10.3432,0.00311c-1.00555,0.00874 -2.0111,0.01748 -3.04713,0.02648c-6.57442,-0.04229 -11.02856,-0.89909 -15.97139,-5.57474c-2.12886,-3.5481 -2.88188,-6.72268 -2.6875,-10.8125c1.5576,-5.19199 3.41028,-8.08945 8,-11c2.96426,-0.94392 5.65693,-1.12752 8.75789,-1.13422c1.43927,-0.00669 1.43927,-0.00669 2.90762,-0.01351c1.05134,0.00018 2.10267,0.00037 3.18587,0.00056c1.11919,-0.00368 2.23838,-0.00735 3.39148,-0.01114c3.76443,-0.01105 7.52883,-0.01488 11.29327,-0.01869c2.69381,-0.00627 5.38762,-0.0129 8.08142,-0.01991c8.09637,-0.01976 16.19274,-0.02984 24.28912,-0.03873c3.81735,-0.00439 7.6347,-0.00975 11.45206,-0.01499c12.69953,-0.01702 25.39906,-0.03151 38.09859,-0.03875c3.29515,-0.00191 6.5903,-0.00383 9.88545,-0.00579c0.81895,-0.00048 1.6379,-0.00096 2.48167,-0.00146c13.24536,-0.00829 26.49063,-0.0336 39.73595,-0.06612c13.6146,-0.03314 27.22914,-0.05109 40.84378,-0.05427c7.6375,-0.00216 15.27487,-0.01082 22.91234,-0.03647c6.5095,-0.02181 13.01884,-0.0297 19.52838,-0.02003c3.31555,0.00452 6.63049,0.0006 9.94604,-0.01676c21.79222,-0.10763 40.07999,1.00739 56.95907,16.42778c4.03468,4.26824 7.08233,8.61644 9.8125,13.8125c0.32259,0.59418 0.64518,1.18835 0.97754,1.80054c5.63353,11.69583 4.75381,26.34303 4.72739,39.0347c0.00374,1.72784 0.00835,3.45569 0.01373,5.18354c0.01213,4.70689 0.01198,9.4137 0.00961,14.12061c-0.00041,5.09206 0.01065,10.18411 0.02011,15.27617c0.01656,9.95857 0.02211,19.91711 0.02323,29.8757c0.00095,8.09593 0.00507,16.19185 0.0114,24.28778c0.01759,22.97661 0.02684,45.95321 0.02534,68.92983c-0.00008,1.23667 -0.00016,2.47334 -0.00024,3.74748c-0.00009,1.23818 -0.00017,2.47637 -0.00025,3.75207c-0.00082,20.0818 0.01834,40.16351 0.04652,60.24529c0.02874,20.64248 0.04254,41.28492 0.04081,61.92742c-0.00066,11.58035 0.00481,23.16063 0.02636,34.74096c0.01822,9.85472 0.02255,19.70933 0.00898,29.56406c-0.00652,5.02446 -0.00667,10.0487 0.01071,15.07313c0.01576,4.6053 0.01283,9.21021 -0.00457,13.8155c-0.00306,1.65994 0.00054,3.3199 0.01172,4.9798c0.11672,18.56081 -4.82671,33.74426 -17.79995,47.3798c-10.53071,9.77201 -22.18324,13.64344 -36.39755,13.63867c-1.31325,0.00199 -2.62649,0.00398 -3.97953,0.00603c-1.44539,-0.00285 -2.89078,-0.0058 -4.33616,-0.00883c-1.5446,0.00044 -3.08919,0.00132 -4.63378,0.00259c-4.23698,0.00224 -8.47394,-0.00176 -12.71091,-0.00677c-4.57184,-0.00433 -9.14367,-0.00286 -13.71551,-0.0021c-7.91857,0.00052 -15.83713,-0.00261 -23.75569,-0.00824c-11.4489,-0.00813 -22.89779,-0.01073 -34.3467,-0.01199c-18.57533,-0.00219 -37.15065,-0.00884 -55.72598,-0.0183c-18.04362,-0.00918 -36.08724,-0.01626 -54.13086,-0.02051c-1.11231,-0.00026 -2.22462,-0.00052 -3.37064,-0.00079c-5.58016,-0.00131 -11.16032,-0.00257 -16.74049,-0.00382c-46.28905,-0.01036 -92.57809,-0.02797 -138.86714,-0.05032c0.01047,0.98919 0.02095,1.97839 0.03174,2.99756c0.03615,3.66386 0.05914,7.32771 0.07812,10.9917c0.01007,1.58694 0.02373,3.17386 0.04102,4.76074c0.02421,2.27869 0.03559,4.55714 0.04443,6.83594c0.01033,0.71151 0.02065,1.42302 0.03128,2.15609c0.0004,1.75429 -0.10457,3.50794 -0.22659,5.25797c-0.66,0.66 -1.32,1.32 -2,2c-4.87034,-0.143 -7.36743,-2.72303 -10.8125,-5.9375c-0.50209,-0.45568 -1.00418,-0.91137 -1.52148,-1.38086c-1.26867,-1.17891 -2.47315,-2.42609 -3.66602,-3.68164c0,-0.66 0,-1.32 0,-2c-4.82455,2.63312 -8.03061,6.02626 -11.71875,10.03906c-2.52251,2.16832 -3.97491,2.81767 -7.28125,2.96094c-2.79213,-2.79213 -2.35138,-5.45304 -2.41406,-9.19531c-0.01937,-0.70745 -0.03873,-1.41489 -0.05869,-2.14377c-0.05983,-2.26185 -0.10619,-4.52375 -0.15225,-6.78592c-0.03818,-1.53257 -0.07723,-3.06513 -0.11719,-4.59766c-0.09609,-3.75894 -0.18011,-7.51798 -0.25781,-11.27734c-0.79374,-0.17958 -1.58748,-0.35917 -2.40527,-0.54419c-13.24185,-3.12683 -24.41775,-9.07868 -31.79004,-20.86597c-6.09033,-10.20844 -8.92232,-19.10528 -8.93891,-31.13033c-0.00235,-0.73018 -0.00471,-1.46037 -0.00713,-2.21268c-0.00665,-2.44188 -0.00623,-4.88371 -0.00582,-7.3256c-0.0033,-1.77044 -0.00703,-3.54088 -0.01114,-5.31132c-0.01,-4.86176 -0.01374,-9.72351 -0.01639,-14.58529c-0.00391,-5.24489 -0.01349,-10.48978 -0.02221,-15.73467c-0.01975,-12.66318 -0.02983,-25.32636 -0.03873,-37.98955c-0.00439,-5.96553 -0.00975,-11.93107 -0.01499,-17.8966c-0.01701,-19.83343 -0.0315,-39.66685 -0.03875,-59.50028c-0.00191,-5.14443 -0.00383,-10.28887 -0.00579,-15.43331c-0.00072,-1.91789 -0.00072,-1.91789 -0.00146,-3.87453c-0.0083,-20.71602 -0.03364,-41.43198 -0.06612,-62.14797c-0.03307,-21.27503 -0.05108,-42.55003 -0.05427,-63.82508c-0.00217,-11.94265 -0.01091,-23.88522 -0.03647,-35.82785c-0.02171,-10.16965 -0.02975,-20.33919 -0.02003,-30.50886c0.00454,-5.18643 0.00266,-10.37264 -0.01676,-15.55903c-0.01765,-4.75364 -0.01662,-9.50691 -0.0011,-14.26056c0.00237,-1.71401 -0.00194,-3.42805 -0.01383,-5.14203c-0.11038,-16.96238 3.36836,-30.89082 15.31771,-43.6368c8.20562,-7.71644 18.30275,-12.13085 29.1875,-14.6875c0.01418,-1.15758 0.02836,-2.31516 0.04297,-3.50781c0.04692,-1.5391 0.09517,-3.07816 0.14453,-4.61719c0.0058,-0.76055 0.0116,-1.52109 0.01758,-2.30469c0.22624,-5.83195 1.54723,-8.53028 5.79492,-12.57031c4.66022,-1.55341 9.14395,-1.73044 14,-1zm-31,61c-1.65628,2.27916 -2.76947,4.4405 -4,7c-0.33,0.66 -0.66,1.32 -1,2c-1.04834,6.76807 -1.14057,13.57371 -1.11353,20.40674c-0.00014,0.98657 -0.00029,1.97314 -0.00044,2.98961c0.00069,3.22468 0.00844,6.44929 0.01631,9.67396c0.00187,2.25015 0.00329,4.50031 0.00429,6.75046c0.0038,5.89522 0.01361,11.79042 0.02471,17.68564c0.01026,6.0265 0.0148,12.05302 0.01983,18.07953c0.0107,11.8047 0.02774,23.60938 0.04883,35.41406c3.87146,-0.74054 7.50944,-1.747 11.25,-3c1.05703,-0.35063 2.11406,-0.70125 3.20312,-1.0625c2.44823,-0.69908 2.44823,-0.69908 3.54688,-1.9375c0.09588,-1.5562 0.12188,-3.11676 0.12025,-4.67592c0.00138,-1.01107 0.00275,-2.02214 0.00417,-3.06386c-0.0036,-1.11849 -0.00719,-2.23698 -0.01089,-3.38937c0.00014,-1.17057 0.00029,-2.34115 0.00044,-3.5472c-0.00058,-3.21886 -0.00561,-6.43768 -0.01258,-9.65654c-0.00623,-3.36058 -0.00683,-6.72117 -0.00802,-10.08177c-0.00311,-6.36776 -0.01133,-12.73551 -0.02135,-19.10327c-0.01116,-7.24777 -0.01667,-14.49553 -0.0217,-21.74331c-0.01046,-14.91293 -0.02806,-29.82584 -0.05032,-44.73876c-5.48914,0 -8.09004,2.31484 -12,6zm435,0c-0.00136,0.87086 -0.00271,1.74172 -0.00411,2.63896c-0.08063,51.59796 -0.17157,103.19588 -0.27594,154.79379c-0.01252,6.19348 -0.02495,12.38696 -0.03733,18.58043c-0.00247,1.23303 -0.00493,2.46605 -0.00748,3.73644c-0.03973,19.97293 -0.07248,39.94585 -0.10264,59.91879c-0.0311,20.48944 -0.0697,40.97886 -0.11529,61.46827c-0.0279,12.64613 -0.04993,25.29225 -0.06447,37.93841c-0.01053,8.66836 -0.02834,17.33669 -0.05191,26.00502c-0.01338,5.00341 -0.02353,10.00677 -0.02504,15.0102c-0.00146,4.58088 -0.01206,9.16165 -0.02992,13.7425c-0.00485,1.65692 -0.00635,3.31385 -0.00415,4.97078c0.0025,2.25415 -0.00726,4.50794 -0.02001,6.76205c-0.00228,1.25156 -0.00455,2.50312 -0.0069,3.7926c-0.46934,6.70787 -1.91378,12.33606 -6.25481,17.64176c-8.52046,6.97129 -18.32532,6.29427 -28.78088,6.27847c-1.50834,0.00501 -3.01667,0.01089 -4.525,0.01756c-4.13211,0.01576 -8.26415,0.01922 -12.39629,0.02064c-4.46073,0.0037 -8.92142,0.01886 -13.38212,0.03262c-7.72428,0.02226 -15.44856,0.03728 -23.17287,0.04737c-11.168,0.01459 -22.33596,0.04013 -33.50394,0.06833c-18.11998,0.04545 -36.23998,0.08207 -54.35999,0.11314c-17.60028,0.03019 -35.20053,0.06454 -52.80078,0.10449c-1.08517,0.00246 -2.17033,0.00492 -3.28838,0.00746c-5.44404,0.01237 -10.88808,0.02483 -16.33211,0.03732c-45.15253,0.10355 -90.30507,0.19261 -135.45764,0.2726c0,5.61 0,11.22 0,17c46.82116,0.09127 93.64231,0.16205 140.46354,0.20426c5.52867,0.005 11.05735,0.01018 16.58602,0.01547c1.65098,0.00157 1.65098,0.00157 3.33531,0.00318c17.81757,0.0174 35.6351,0.04893 53.45264,0.0857c18.28479,0.03742 36.56954,0.05963 54.85436,0.06774c11.28115,0.00549 22.56216,0.02281 33.84327,0.05532c7.73768,0.02115 15.47529,0.02753 23.213,0.02234c4.46312,-0.00256 8.92599,0.00134 13.38907,0.02281c4.09076,0.01954 8.1811,0.0204 12.27188,0.00678c1.4753,-0.00169 2.95062,0.00333 4.42586,0.01593c10.02663,0.08067 18.21763,-1.06324 26.97755,-6.12453c6.04279,-6.56074 9.3101,-13.31234 9.31893,-22.19742c0.00205,-0.70114 0.0041,-1.40228 0.00622,-2.12467c0.00569,-2.36714 0.00421,-4.73423 0.00279,-7.10139c0.00258,-1.70725 0.0056,-3.41451 0.00901,-5.12176c0.00808,-4.70557 0.00986,-9.41113 0.01059,-14.11671c0.00185,-5.06972 0.0094,-10.13943 0.01614,-15.20914c0.01359,-11.09312 0.01961,-22.18623 0.02401,-33.27935c0.00276,-6.92511 0.007,-13.85023 0.0115,-20.77534c0.0122,-19.16844 0.0225,-38.33689 0.02588,-57.50534c0.00022,-1.22743 0.00044,-2.45487 0.00066,-3.7195c0.00022,-1.23041 0.00044,-2.46081 0.00066,-3.7285c0.00045,-2.49334 0.00089,-4.98667 0.00134,-7.48001c0.00023,-1.23679 0.00045,-2.47357 0.00068,-3.74784c0.00394,-20.03606 0.02139,-40.0721 0.04468,-60.10815c0.02372,-20.56411 0.03618,-41.12821 0.03735,-61.69233c0.00091,-11.54857 0.00667,-23.09708 0.02482,-34.64564c0.01539,-9.83532 0.02052,-19.67057 0.01226,-29.5059c-0.00391,-5.01789 -0.00297,-10.03566 0.01105,-15.05353c0.01274,-4.59631 0.01155,-9.19241 -0.00059,-13.78872c-0.00195,-1.66024 0.00113,-3.32049 0.00985,-4.98071c0.05446,-11.07597 0.08984,-20.67234 -7.38033,-29.49305zm-436,151c-4.58406,4.81327 -5.12514,8.34217 -5.09766,14.85547c0.00142,0.66164 0.00283,1.32327 0.00429,2.00496c0.00559,2.10907 0.01814,4.21803 0.03087,6.32707c0.00502,1.43164 0.00958,2.86328 0.01367,4.29492c0.01102,3.5059 0.02827,7.01173 0.04883,10.51758c6.13572,-1.53393 12.0439,-3.87282 18,-6c0,-12.21 0,-24.42 0,-37c-5.36227,0 -8.61928,2.04463 -13,5zm11,63c-7.3182,3.41395 -12.76802,6.20649 -16,14c-0.27089,2.61615 -0.39395,4.98441 -0.36076,7.59299c-0.00257,0.74425 -0.00513,1.4885 -0.00777,2.2553c-0.00493,2.48292 0.01153,4.96523 0.02795,7.4481c0.00085,1.78411 0.00037,3.56822 -0.00132,5.35234c-0.00086,4.83636 0.01677,9.67249 0.03772,14.5088c0.01876,5.05686 0.02052,10.11373 0.02407,15.17063c0.00933,9.57278 0.03394,19.14546 0.06405,28.7182c0.03354,10.89956 0.05003,21.79912 0.06509,32.69871c0.03135,22.41837 0.08411,44.83664 0.15097,67.25493c3.1091,-0.55273 5.50822,-1.22177 8.4375,-2.5c3.29694,-1.38819 6.052,-1.98651 9.5625,-2.5c0.04666,-24.47761 0.08196,-48.9552 0.10362,-73.43284c0.01033,-11.36469 0.02441,-22.72935 0.04726,-34.09402c0.0199,-9.90225 0.03283,-19.80449 0.0373,-29.70677c0.00261,-5.24605 0.00878,-10.49204 0.02328,-15.73808c0.01353,-4.93289 0.01777,-9.8657 0.01476,-14.7986c0.00055,-1.81491 0.00455,-3.62981 0.01219,-5.4447c0.00989,-2.46919 0.00758,-4.93808 0.0021,-7.40727c0.00874,-1.08851 0.00874,-1.08851 0.01765,-2.19901c0.09084,-4.03774 0.09084,-4.03774 -2.25816,-7.17871zm-12,227c1.26539,3.90161 2.34475,6.02419 6,8c3.65274,0.72481 3.65274,0.72481 7,1c1.18225,-3.54674 0.8933,-5.97523 0.5625,-9.6875c-0.10184,-1.17949 -0.20367,-2.35898 -0.30859,-3.57422c-0.08379,-0.90363 -0.16758,-1.80726 -0.25391,-2.73828c-4.72216,0 -9.69133,4.09238 -13,7z"/>
  <path id="svg_2" fill="#010101" d="m416,284c3.75758,2.19535 6.38713,4.94204 8,9c3.31566,26.2669 -9.63758,57.54396 -24.77734,78.21094c-2.90232,3.64192 -5.93214,7.1229 -9.11329,10.52344c-1.91197,2.05359 -3.69725,4.16656 -5.48437,6.32812c-4.33241,4.9613 -9.43097,8.91814 -14.625,12.9375c-0.84305,0.67031 -1.68609,1.34063 -2.55469,2.03125c-22.21376,17.0148 -51.1318,26.93246 -79.08984,27.20703c-1.2139,0.01211 -1.2139,0.01211 -2.45232,0.02446c-1.7085,0.01375 -3.41702,0.02452 -5.12556,0.03243c-1.70712,0.01142 -3.4142,0.03172 -5.1211,0.06152c-38.70124,0.67277 -72.9697,-15.87367 -100.65649,-42.35669c-19.72845,-19.6237 -33.27664,-45.61153 -38,-73c-0.13148,-0.72316 -0.26297,-1.44633 -0.39844,-2.19141c-1.12061,-7.25367 -1.69976,-15.33094 0.52344,-22.37109c2.79879,-3.63843 5.41937,-6.05205 10.08984,-6.78516c4.70587,-0.18009 8.09701,0.18639 11.78516,3.34766c4.44991,5.31923 4.98895,10.50133 5.875,17.25c3.26084,21.59304 10.58467,40.20118 25.125,56.75c0.66258,0.80566 1.32516,1.61133 2.00781,2.44141c18.13337,21.37863 43.79113,32.30284 70.99219,36.55859c0.80695,0.13277 1.61391,0.26555 2.44531,0.40234c30.04237,4.16938 62.28262,-4.31447 86.55469,-22.40234c4.17984,-3.47617 8.09256,-7.2239 12,-11c0.75539,-0.70383 1.51078,-1.40766 2.28906,-2.13281c18.02532,-17.19017 26.70143,-41.75347 29.59912,-66.00757c0.77027,-5.79196 2.77313,-9.80441 7.17432,-13.67212c4.27385,-2.61946 8.22893,-2.49593 12.9375,-1.1875z"/>
  <path id="svg_3" fill="#010101" d="m392,254c4.89718,3.97896 7.08958,7.55152 8.14453,13.76953c-0.4218,6.50945 -5.34353,10.84534 -9.71875,15.13281c-0.96399,0.96119 -0.96399,0.96119 -1.94746,1.94179c-1.35735,1.35065 -2.71829,2.69771 -4.08257,4.04137c-2.06608,2.03509 -4.12145,4.08049 -6.17505,6.12817c-1.32685,1.31768 -2.65431,2.63476 -3.98242,3.95117c-0.90827,0.9019 -0.90827,0.9019 -1.83488,1.82201c-3.75872,3.69754 -7.64069,7.20547 -11.62662,10.65628c-2.00635,1.75803 -3.9095,3.58958 -5.77678,5.49437c-0.66,0.66773 -1.32,1.33547 -2,2.02344c-0.66,0.67289 -1.32,1.34578 -2,2.03906c-3.88284,3.95867 -7.76341,7.85058 -11.96875,11.46875c-4.40328,3.79267 -8.46112,7.88698 -12.53125,12.03125c-3.98628,4.05889 -7.94549,8.08156 -12.28125,11.76953c-3.49842,3.00737 -6.74664,6.22583 -9.96875,9.52344c-0.50729,0.51753 -1.01457,1.03506 -1.53723,1.56827c-2.10462,2.1498 -4.20697,4.30149 -6.2948,6.46762c-11.62938,12.04239 -11.62938,12.04239 -18.41797,14.17114c-4.59758,-1.06309 -7.36093,-2.81969 -10.76871,-6.02878c-0.86367,-0.80839 -1.72733,-1.61678 -2.61717,-2.44967c-0.86266,-0.83211 -1.72532,-1.66422 -2.61412,-2.52155c-0.78847,-0.76036 -1.57693,-1.52071 -2.38929,-2.30411c-2.45345,-2.39588 -4.88494,-4.81223 -7.31139,-7.23544c-1.36781,-1.36036 -1.36781,-1.36036 -2.76325,-2.7482c-2.46901,-2.45607 -4.93483,-4.9153 -7.39962,-7.37561c-1.54442,-1.54147 -3.08941,-3.08235 -4.63458,-4.62307c-4.84825,-4.83464 -9.69454,-9.67123 -14.53793,-14.51073c-5.56746,-5.56297 -11.14143,-11.11931 -16.72107,-16.67007c-4.33335,-4.31172 -8.6609,-8.6292 -12.98412,-12.95109c-2.5741,-2.57305 -5.15053,-5.14365 -7.73307,-7.70824c-2.87551,-2.85591 -5.73888,-5.72371 -8.60136,-8.59268c-0.84888,-0.83966 -1.69776,-1.67932 -2.57236,-2.54443c-9.3098,-9.3761 -9.3098,-9.3761 -10.88321,-15.95899c0.08677,-5.10868 1.10652,-8.01013 4.53125,-11.77734c3.85086,-2.81999 7.37004,-4.37462 12.1875,-3.9375c5.39389,1.32637 8.86863,3.742 12.75459,7.63908c0.74732,0.74457 1.49464,1.48914 2.26461,2.25628c0.80488,0.81207 1.60977,1.62415 2.43905,2.46084c0.85905,0.85875 1.71809,1.71751 2.60317,2.60228c2.34625,2.34741 4.68799,4.69915 7.02781,7.05296c2.44943,2.46196 4.90455,4.91823 7.35906,7.37511c4.64335,4.64956 9.28157,9.30419 13.91797,13.96068c5.28022,5.30259 10.56613,10.59948 15.85253,15.89591c10.87091,10.8918 21.73467,21.79072 32.59371,32.69436c3.3698,-1.59712 5.58958,-3.34629 8.23022,-6.00317c0.82444,-0.82459 1.64887,-1.64917 2.49828,-2.49874c1.32355,-1.33903 1.32355,-1.33903 2.67384,-2.70512c1.37208,-1.37632 1.37208,-1.37632 2.77187,-2.78044c2.43065,-2.43828 4.85525,-4.8825 7.27861,-7.32802c2.4542,-2.47458 4.91398,-4.94359 7.37335,-7.41303c4.38302,-4.40232 8.76036,-8.81023 13.13591,-13.21997c2.34046,-2.35607 4.68841,-4.70447 7.03792,-7.05151c1.01785,-1.02773 2.03492,-2.05624 3.05078,-3.08594c1.08721,-1.09638 2.17445,-2.19274 3.26172,-3.28906c0.53045,-0.53883 1.0609,-1.07766 1.60742,-1.63281c2.80214,-2.81892 5.65047,-5.50647 8.68164,-8.07813c3.72805,-3.22051 7.17746,-6.66226 10.6211,-10.17968c0.55381,-0.56406 1.10763,-1.12812 1.67823,-1.70926c2.30699,-2.35228 4.6117,-4.70647 6.90209,-7.07492c1.69318,-1.74789 3.39899,-3.48261 5.10718,-5.21582c0.50749,-0.53128 1.01498,-1.06256 1.53785,-1.60993c6.44458,-6.49061 12.80132,-8.43191 21.55199,-5.12445z"/>
  <path id="svg_4" fill="#010101" d="m368,167c3.8951,2.01471 6.18564,4.7106 8.5,8.375c0.89575,4.70267 0.89507,8.56758 -1.81641,12.56641c-1.82491,2.0959 -3.73862,4.0737 -5.68359,6.05859c-1.50526,1.68281 -3.00509,3.37049 -4.5,5.0625c-4.8228,5.3369 -9.72203,10.44761 -15.19141,15.125c-4.4235,3.85554 -8.55964,7.95359 -12.68359,12.125c-0.76876,0.77255 -1.53753,1.5451 -2.32959,2.34106c-2.43427,2.44638 -4.86525,4.89598 -7.29541,7.34644c-3.20536,3.23214 -6.41414,6.46083 -9.625,9.6875c-1.0816,1.09405 -1.0816,1.09405 -2.18506,2.21021c-4.00201,4.02105 -8.10884,7.83793 -12.40616,11.54113c-2.28656,2.00119 -4.42388,4.12114 -6.5455,6.29554c-1.21333,1.23169 -1.21333,1.23169 -2.45117,2.48828c-1.66329,1.69873 -3.32472,3.39928 -4.98438,5.10156c-0.80502,0.81598 -1.61003,1.63195 -2.43945,2.47266c-0.71889,0.73573 -1.43779,1.47146 -2.17847,2.22949c-3.58872,3.24184 -6.29168,5.28422 -11.24023,5.36279c-7.28199,-1.14347 -12.16146,-7.56886 -17.05786,-12.61572c-1.14187,-1.14919 -2.2853,-2.29682 -3.43022,-3.44297c-2.39001,-2.40074 -4.76629,-4.81401 -7.13253,-7.23818c-3.02188,-3.0954 -6.06713,-6.16638 -9.12188,-9.22931c-2.35972,-2.36834 -4.71106,-4.74485 -7.05956,-7.12431c-1.11999,-1.13448 -2.24146,-2.26749 -3.36451,-3.39894c-1.57229,-1.58834 -3.13411,-3.18629 -4.6933,-4.78748c-0.88775,-0.90522 -1.7755,-1.81043 -2.69014,-2.74308c-3.07078,-3.60245 -6.05965,-7.45717 -6.74224,-12.25058c0.76187,-5.66703 2.18265,-8.5873 6.34766,-12.55859c3.00736,-1.83468 5.36561,-2.32034 8.875,-2.375c0.82242,-0.02836 1.64484,-0.05672 2.49219,-0.08594c7.15944,1.25344 12.20551,7.76441 17.07031,12.71094c0.7251,0.72574 1.4502,1.45148 2.19727,2.19922c4.07308,4.10602 7.9565,8.31929 11.73315,12.69824c2.40951,2.73499 4.96993,5.29963 7.56958,7.85254c0.49307,0.48855 0.98613,0.97711 1.49414,1.48047c1.18709,1.17557 2.37736,2.34792 3.56836,3.51953c3.00829,-1.31773 4.73996,-2.60401 6.75,-5.1875c2.83696,-3.46499 5.97115,-6.28817 9.41797,-9.13672c1.92403,-1.64923 1.92403,-1.64923 3.44531,-3.88281c0.45762,-0.59168 0.91524,-1.18336 1.38672,-1.79297c0.66,0 1.32,0 2,0c0.19803,-0.53585 0.39606,-1.07169 0.6001,-1.62378c2.00951,-3.41099 4.87946,-5.7796 7.79834,-8.39575c6.22945,-5.6976 12.25962,-11.55968 18.20312,-17.55469c0.81862,-0.82428 1.63723,-1.64857 2.48065,-2.49783c3.38065,-3.4076 6.75694,-6.81944 10.12922,-10.23532c2.50068,-2.53081 5.0075,-5.05543 7.51513,-7.57935c1.13751,-1.1577 1.13751,-1.1577 2.29801,-2.33879c7.21285,-7.24708 12.44931,-10.501 22.97543,-8.77449z"/>
  <path id="svg_5" fill="#010101" d="m321.75,150.4375c3.49144,3.97636 4.4721,6.69603 4.25,11.9375c-0.69427,5.06307 -3.11718,8.37966 -7,11.625c-6.73745,2.24582 -14.83638,0.24962 -21.6875,-1.0625c-31.6658,-5.07884 -62.49527,1.97748 -88.44141,20.59766c-12.22488,9.16129 -21.06628,20.46184 -28.87109,33.46484c-8.18617,13.59309 -8.18617,13.59309 -15,17c-3.95344,0.63609 -7.51515,0.83174 -11.07813,-1.16406c-3.39367,-2.78053 -6.05875,-5.41244 -6.92187,-9.83594c0.43504,-5.62105 2.00535,-9.77592 4.5625,-14.6875c0.3586,-0.69843 0.7172,-1.39686 1.08667,-2.11646c16.36968,-31.28245 44.72278,-56.09212 78.35083,-67.19604c24.61487,-7.49204 68.32048,-15.8746 90.75,1.4375z"/>
  <path id="svg_6" fill="#010101" d="m141.966064,28.649902c1.89238,-0.01656 3.78469,-0.04384 5.67676,-0.08203c2.73006,-0.05482 5.45866,-0.07665 8.18921,-0.09131c1.2643,-0.034 1.2643,-0.034 2.55415,-0.06869c4.39679,0.01578 6.07216,0.15893 9.62431,2.99984c2.45159,3.19438 3.11422,4.68075 3.12322,8.609c0.00426,0.83983 0.00853,1.67965 0.01292,2.54493c-0.00045,0.92317 -0.0009,1.84634 -0.00137,2.79749c0.00336,0.97083 0.00672,1.94166 0.01018,2.94191c0.00953,3.22128 0.01145,6.44251 0.01252,9.6638c0.00322,2.23198 0.00658,4.46396 0.01009,6.69594c0.006,4.68331 0.00784,9.3666 0.00725,14.04991c-0.0001,6.01051 0.01355,12.02091 0.03077,18.0314c0.0111,4.61099 0.01315,9.22195 0.01262,13.83295c0.00118,2.21644 0.00562,4.43288 0.01333,6.64931c0.00976,3.09579 0.00694,6.19132 0.0009,9.28712c0.00561,0.92115 0.01123,1.84229 0.01702,2.79135c-0.00419,0.84265 -0.00838,1.6853 -0.01271,2.55349c0.00055,0.73207 0.00109,1.46414 0.00165,2.21839c-0.24888,1.9253 -0.24888,1.9253 -2.24888,4.9253c-2.32422,0.89453 -2.32422,0.89453 -5,1c-2.45704,-1.36328 -2.45704,-1.36328 -4.8125,-3.3125c-0.7902,-0.63551 -1.5804,-1.27102 -2.39454,-1.92578c-0.59168,-0.58137 -1.18336,-1.16274 -1.79296,-1.76172c0,-0.66 0,-1.32 0,-2c-0.66,0 -1.32,0 -2,0c0,-0.66 0,-1.32 0,-2c-0.55688,-0.2475 -1.11375,-0.495 -1.6875,-0.75c-2.71112,-1.46547 -4.92874,-3.30504 -7.3125,-5.25c-0.61747,0.55687 -1.23493,1.11375 -1.8711,1.6875c-1.77076,1.59557 -3.54577,3.18644 -5.32422,4.77344c-1.79204,1.62232 -3.56058,3.27126 -5.29687,4.95312c-0.76571,0.72961 -1.53141,1.45922 -2.32031,2.21094c-0.68707,0.67289 -1.37415,1.34578 -2.08204,2.03906c-2.10546,1.33594 -2.10546,1.33594 -4.74218,1.17188c-2.36328,-0.83594 -2.36328,-0.83594 -4.36328,-2.83594c-0.26007,-1.8251 -0.26007,-1.8251 -0.27416,-4.07918c-0.00997,-0.85377 -0.01995,-1.70753 -0.03023,-2.58717c-0.00066,-0.93873 -0.00133,-1.87746 -0.00201,-2.84464c-0.00832,-0.98712 -0.01665,-1.97425 -0.02522,-2.99129c-0.02418,-3.27662 -0.03289,-6.55305 -0.03948,-9.82975c-0.00896,-2.27203 -0.01808,-4.54406 -0.02736,-6.81609c-0.01651,-4.76908 -0.02419,-9.5381 -0.02708,-14.3072c-0.00538,-6.11369 -0.04305,-12.22671 -0.08875,-18.3402c-0.02973,-4.69516 -0.03697,-9.39016 -0.03798,-14.08541c-0.00421,-2.25389 -0.01668,-4.50777 -0.03752,-6.76157c-0.02683,-3.15327 -0.02211,-6.305 -0.00958,-9.45833c-0.01483,-0.93266 -0.02967,-1.86532 -0.04495,-2.82624c0.05157,-4.55394 0.15077,-6.44769 3.05678,-10.12913c6.1269,-4.60263 14.15145,-3.24641 21.5536,-3.2939z"/>
  <path id="svg_15" fill="#020202" d="m397.5,203.9375c7.47027,6.16298 14.66002,16.276 16.0625,25.9375c-0.82189,4.56607 -2.57116,6.97877 -5.5625,10.4375c-4.64421,2.61237 -8.81008,2.71963 -14,1.6875c-5.84479,-2.90665 -9.42164,-8.67189 -13,-13.9375c-0.39848,-0.5725 -0.79696,-1.14501 -1.20752,-1.73486c-3.01875,-4.72621 -3.30961,-7.90899 -2.79248,-13.32764c4.29111,-8.12245 11.26915,-12.52407 20.5,-9.0625z"/>
  <path id="svg_16" fill="#0A0A0A" d="m107,524c0.33,0 0.66,0 1,0c0,6.27 0,12.54 0,19c105.6,0 211.2,0 320,0c0,0.33 0,0.66 0,1c13.86,0.495 13.86,0.495 28,1c0,0.33 0,0.66 0,1c-115.17,0 -230.34,0 -349,0c-1.16582,-2.33164 -1.12906,-3.72153 -1.13281,-6.31641c-0.00129,-0.84627 -0.00258,-1.69254 -0.00391,-2.56445c0.00387,-0.88494 0.00774,-1.76988 0.01172,-2.68164c-0.00387,-0.88881 -0.00773,-1.77762 -0.01172,-2.69336c0.00129,-0.84498 0.00258,-1.68996 0.00391,-2.56055c0.00113,-0.77803 0.00225,-1.55606 0.00342,-2.35766c0.12939,-1.82593 0.12939,-1.82593 1.12939,-2.82593z"/>
  <path id="svg_17" fill="#0C0C0C" d="m56,311c0.66,0.33 1.32,0.66 2,1c-0.63938,0.76313 -1.27875,1.52625 -1.9375,2.3125c-3.26636,4.25616 -3.20405,7.85454 -3.18275,12.99565c-0.00086,0.74985 -0.00171,1.49971 -0.00259,2.27228c-0.00165,2.51968 0.00386,5.0393 0.00931,7.55897c0.00029,1.80338 0.00013,3.60675 -0.00044,5.41013c-0.00029,4.90257 0.0056,9.80511 0.01258,14.70768c0.00624,5.12095 0.00683,10.2419 0.00802,15.36286c0.00311,9.70034 0.01132,19.40067 0.02135,29.101c0.01117,11.04218 0.01667,22.08436 0.0217,33.12655c0.01046,22.71746 0.02805,45.43492 0.05032,68.15238c-0.66,0.33 -1.32,0.66 -2,1c-2,-2 -2,-2 -2.2461,-4.04209c0.00277,-1.26931 0.00277,-1.26931 0.00559,-2.56426c-0.00275,-0.97038 -0.0055,-1.94076 -0.00833,-2.94054c0.00719,-1.06814 0.01438,-2.13629 0.02179,-3.2368c-0.00044,-1.68293 -0.00044,-1.68293 -0.00089,-3.39986c0.0014,-3.72275 0.01698,-7.4453 0.03263,-11.16801c0.00373,-2.57547 0.00657,-5.15094 0.00857,-7.72641c0.00687,-6.09506 0.02265,-12.19004 0.0427,-18.28507c0.02234,-6.93823 0.03335,-13.87647 0.04339,-20.81473c0.02092,-14.27412 0.05611,-28.54817 0.10065,-42.82223c0.33,0 0.66,0 1,0c0,-7.26 0,-14.52 0,-22c-0.33,0 -0.66,0 -1,0c0,-9.9 0,-19.8 0,-30c0.33,0 0.66,0 1,0c0.01418,-1.22977 0.02836,-2.45953 0.04297,-3.72656c0.04692,-1.63285 0.09517,-3.26566 0.14453,-4.89844c0.0058,-0.80824 0.0116,-1.61648 0.01758,-2.44922c0.21936,-5.99578 1.51443,-8.70673 5.79492,-12.92578z"/>
  <path id="svg_19" fill="#070707" d="m106,570c46.2,0 92.4,0 140,0c0,0.33 0,0.66 0,1c-32.18861,0.95759 -64.3622,1.08965 -96.5625,1.0625c-1.0223,-0.00086 -2.0446,-0.00171 -3.09788,-0.00259c-12.77989,-0.01149 -25.55975,-0.03248 -38.33962,-0.05991c0,10.56 0,21.12 0,32c-0.66,0 -1.32,0 -2,0c0,-11.22 0,-22.44 0,-34z"/>
  <path id="svg_21" fill="#070707" d="m54,95c0.66,0.33 1.32,0.66 2,1c-0.46406,0.92813 -0.46406,0.92813 -0.9375,1.875c-1.46643,4.31302 -1.72869,8.601 -2.0625,13.125c-0.33,0 -0.66,0 -1,0c-0.33,15.18 -0.66,30.36 -1,46c-0.33,0 -0.66,0 -1,0c-0.33,-18.48 -0.66,-36.96 -1,-56c0.66,0 1.32,0 2,0c0.99,-1.98 1.98,-3.96 3,-6z"/>
  <path id="svg_22" fill="#0C0C0C" d="m52,247c0.66,0.33 1.32,0.66 2,1c-0.33,0.99 -0.66,1.98 -1,3c-0.06051,2.33387 -0.06036,4.66949 -0.02734,7.00391c0.01264,1.39387 0.025,2.78775 0.03711,4.18164c0.02487,2.19466 0.05292,4.38919 0.08618,6.58374c0.03012,2.11988 0.04794,4.23959 0.06421,6.35962c0.01683,1.26916 0.03367,2.53832 0.05102,3.84594c-0.21118,3.02515 -0.21118,3.02515 -2.21118,5.02515c-3.18382,-4.77573 -2.33327,-10.24044 -2.31567,-15.82397c0.00315,-2.10283 -0.0203,-4.20424 -0.04566,-6.30689c-0.00227,-1.34049 -0.00297,-2.68099 -0.00195,-4.02148c-0.00298,-1.2168 -0.00596,-2.43359 -0.00903,-3.68726c0.39616,-3.36286 1.08564,-4.7271 3.37231,-7.1604z"/>
  <path id="svg_23" fill="#131313" d="m106,570c2.64,0 5.28,0 8,0c0,0.66 0,1.32 0,2c-1.98,0 -3.96,0 -6,0c0,10.56 0,21.12 0,32c-0.66,0 -1.32,0 -2,0c0,-11.22 0,-22.44 0,-34z"/>
  <path id="svg_24" fill="#0F0F0F" d="m218,228c7.46089,6.19095 15.02998,12.57258 20,21c-3.77469,-0.5662 -5.47552,-2.12269 -8.10937,-4.81641c-0.75411,-0.76377 -1.50821,-1.52754 -2.28516,-2.31445c-0.77731,-0.80244 -1.55461,-1.60488 -2.35547,-2.43164c-0.79277,-0.80631 -1.58555,-1.61262 -2.40234,-2.44336c-1.95613,-1.99148 -3.90492,-3.98962 -5.84766,-5.99414c0.33,-0.99 0.66,-1.98 1,-3z"/>
  <path id="svg_25" fill="#06070B" d="m400,363c0.99,0.66 1.98,1.32 3,2c-10.81764,17.56276 -10.81764,17.56276 -17.27344,19.78125c-0.56976,0.07219 -1.13953,0.14438 -1.72656,0.21875c1.9097,-4.3893 4.99219,-7.41477 8.22266,-10.87891c1.96999,-2.08751 1.96999,-2.08751 2.77734,-5.12109c0.99,0 1.98,0 3,0c0.66,-1.98 1.32,-3.96 2,-6z"/>
  <path id="svg_26" fill="#090909" d="m349,319c0.66,0 1.32,0 2,0c-1.40996,3.24198 -3.07479,5.25799 -5.66797,7.64453c-0.72896,0.6774 -1.45793,1.35481 -2.20898,2.05274c-0.76248,0.69802 -1.52496,1.39605 -2.31055,2.11523c-1.49449,1.38043 -2.98799,2.76193 -4.48047,4.14453c-0.72365,0.66983 -1.44729,1.33966 -2.19287,2.02979c-3.11771,2.9341 -6.13922,5.95928 -9.13916,9.01318c-0.66,-0.33 -1.32,-0.66 -2,-1c3.37499,-3.42432 6.75641,-6.8421 10.14404,-10.25391c1.1522,-1.16227 2.3026,-2.32633 3.45117,-3.49218c1.64849,-1.67267 3.30329,-3.33887 4.95948,-5.00391c0.77197,-0.78746 0.77197,-0.78746 1.55954,-1.59082c1.25786,-1.25826 2.56764,-2.4642 3.88577,-3.65918c0.66,0 1.32,0 2,0c0,-0.66 0,-1.32 0,-2z"/>
  <path id="svg_27" fill="#080808" d="m504,561c0,0.99 0,1.98 0,3c-6.18858,3.91644 -11.7453,5.98525 -19,7c0.27954,-1.90942 0.27954,-1.90942 1,-4c2.68905,-1.1048 5.15121,-1.93855 7.9375,-2.6875c1.46774,-0.41954 2.93521,-0.84007 4.40234,-1.26172c1.20786,-0.34676 2.41571,-0.69351 3.66016,-1.05078c0.66,-0.33 1.32,-0.66 2,-1z"/>
  <path id="svg_28" fill="#0C0C0C" d="m153,285c3.39462,0.28288 4.74132,0.74132 7.1875,3.1875c2.9028,4.50435 4.12772,8.45373 3.8125,13.8125c-0.66,0 -1.32,0 -2,0c-0.33,0.66 -0.66,1.32 -1,2c-0.09797,-0.73605 -0.19594,-1.47211 -0.29687,-2.23047c-0.87395,-5.70328 -1.56465,-9.4931 -5.70313,-13.76953c0,-0.66 0,-1.32 0,-2c-0.66,-0.33 -1.32,-0.66 -2,-1z"/>
  <path id="svg_29" fill="#090909" d="m347.410156,383.800781c0.52465,0.39574 1.0493,0.79148 1.58984,1.19922c-1.24556,0.81929 -2.49666,1.63015 -3.75,2.4375c-0.69609,0.45246 -1.39218,0.90492 -2.10937,1.37109c-2.08094,1.15819 -3.84334,1.64605 -6.14063,2.19141c-0.66,0.53625 -1.32,1.0725 -2,1.625c-2,1.375 -2,1.375 -4.25,1.0625c-0.5775,-0.22688 -1.155,-0.45375 -1.75,-0.6875c2.68061,-3.08126 5.89376,-4.8375 9.4375,-6.8125c1.69963,-0.96873 1.69963,-0.96873 3.4336,-1.95703c3.1289,-1.23047 3.1289,-1.23047 5.53906,-0.42969z"/>
  <path id="svg_30" fill="#0A0A0A" d="m238.210938,393.972656c1.04414,0.35965 2.08828,0.7193 3.16406,1.08984c1.05961,0.36223 2.11922,0.72446 3.21094,1.09766c0.79664,0.27715 1.59328,0.5543 2.41406,0.83984c0,0.66 0,1.32 0,2c-0.99,0.33 -1.98,0.66 -3,1c-0.33,-0.33 -0.66,-0.66 -1,-1c-0.99,0 -1.98,0 -3,0c-1.33333,-0.66666 -2.66666,-1.33333 -4,-2c-1.2375,-0.21656 -1.2375,-0.21656 -2.5,-0.4375c-2.81542,-0.63347 -4.32392,-1.7088 -6.5,-3.5625c3.64976,-1.82487 7.46568,-0.16185 11.21094,0.97266z"/>
  <path id="svg_32" fill="#090909" d="m329,394c0,0.66 0,1.32 0,2c-0.57879,0.13406 -1.15758,0.26812 -1.75391,0.40625c-2.14229,0.56631 -4.12516,1.27853 -6.18359,2.09375c-3.00227,1.14053 -5.85328,2.12244 -9.0625,2.5c-0.66,-0.33 -1.32,-0.66 -2,-1c0,-0.66 0,-1.32 0,-2c2.41267,-0.86724 4.82904,-1.71897 7.25,-2.5625c0.68191,-0.24686 1.36383,-0.49371 2.06641,-0.74805c6.26701,-2.15999 6.26701,-2.15999 9.68359,-0.68945z"/>
  <path id="svg_33" fill="#111111" d="m365,167c2.75505,0.08103 4.51587,0.59116 6.63281,2.37891c3.79885,4.10165 5.13968,7.04716 5.36719,12.62109c-0.66,0 -1.32,0 -2,0c-0.35062,-1.03125 -0.70125,-2.0625 -1.0625,-3.125c-1.65747,-3.96667 -4.12975,-6.05755 -7.51172,-8.61328c-0.47051,-0.41637 -0.94101,-0.83274 -1.42578,-1.26172c0,-0.66 0,-1.32 0,-2z"/>
  <path id="svg_34" fill="#0D0D0D" d="m296,143c1.95979,0.28168 3.91782,0.57567 5.875,0.875c1.09055,0.16242 2.18109,0.32484 3.30469,0.49219c2.82031,0.63281 2.82031,0.63281 4.82031,2.63281c-0.33,0.66 -0.66,1.32 -1,2c-5.94,-0.99 -11.88,-1.98 -18,-3c0,-0.33 0,-0.66 0,-1c1.65,0 3.3,0 5,0c0,-0.66 0,-1.32 0,-2z"/>
  <path id="svg_35" fill="#080808" d="m203,376c5.08939,1.59043 8.87457,4.7447 13,8c-0.33,0.66 -0.66,1.32 -1,2c-5.75,-1.875 -5.75,-1.875 -8,-3c0,-0.66 0,-1.32 0,-2c-1.32,-0.66 -2.64,-1.32 -4,-2c0,-0.99 0,-1.98 0,-3z"/>
  <path id="svg_36" fill="#0D0D0D" d="m186.5,260.0625c0.495,0.30938 0.99,0.61875 1.5,0.9375c-0.33,0.99 -0.66,1.98 -1,3c-1.02094,-0.7425 -1.02094,-0.7425 -2.0625,-1.5c-3.63998,-1.85871 -5.89213,-1.93343 -9.9375,-1.5c-1.68992,0.96018 -3.36209,1.95356 -5,3c-0.99,-0.33 -1.98,-0.66 -3,-1c6.68523,-4.60538 11.81087,-6.20538 19.5,-2.9375z"/>
  <path id="svg_37" fill="#090909" d="m203,165c0,0.66 0,1.32 0,2c-1.79297,1.47266 -1.79297,1.47266 -4.1875,3.0625c-0.7773,0.52723 -1.55461,1.05445 -2.35547,1.59766c-2.52689,1.37793 -4.62346,1.93217 -7.45703,2.33984c1.19486,-3.58457 2.22673,-4.1421 5.3125,-6.1875c0.77988,-0.5298 1.55977,-1.05961 2.36328,-1.60547c2.32422,-1.20703 2.32422,-1.20703 6.32422,-1.20703z"/>
  <path id="svg_38" fill="#090909" d="m391,254c4.20626,1.50224 5.739,4.2855 8,8c-0.66,1.32 -1.32,2.64 -2,4c-2,-2 -2,-2 -3.4375,-4.4375c-1.36414,-2.23719 -2.63574,-3.81924 -4.5625,-5.5625c0.66,0 1.32,0 2,0c0,-0.66 0,-1.32 0,-2z"/>
  <path id="svg_39" fill="#0B0B0B" d="m342,179c0.66,0.33 1.32,0.66 2,1c-1.3173,3.55672 -3.46882,5.37445 -6.40234,7.69531c-2.37523,1.93968 -4.46212,4.10634 -6.59766,6.30469c-0.66,-0.33 -1.32,-0.66 -2,-1c1.41525,-1.5846 2.83226,-3.16762 4.25,-4.75c0.78891,-0.88172 1.57781,-1.76344 2.39062,-2.67187c2.06531,-2.25679 4.17673,-4.43553 6.35938,-6.57813z"/>
  <path id="svg_41" fill="#0B0B0B" d="m200,198c0,4.26019 -2.50815,6.03413 -5.3125,8.9375c-4.59109,4.82087 -4.59109,4.82087 -8.6875,10.0625c-0.66,-0.33 -1.32,-0.66 -2,-1c1.72632,-2.06494 3.45594,-4.12696 5.1875,-6.1875c0.48275,-0.57814 0.96551,-1.15629 1.46289,-1.75195c2.97045,-3.52866 6.03976,-6.84752 9.34961,-10.06055z"/>
  <path id="svg_44" fill="#0C0C0C" d="m300,400c0.33,0.99 0.66,1.98 1,3c-2.24512,1.12256 -3.51457,1.13414 -6,1.125c-1.05187,0.00387 -1.05187,0.00387 -2.125,0.00781c-1.875,-0.13281 -1.875,-0.13281 -3.875,-1.13281c0,-0.66 0,-1.32 0,-2c7.625,-1 7.625,-1 11,-1z"/>
  <path id="svg_45" fill="#090909" d="m163,313c0.99,0 1.98,0 3,0c0.66,3.3 1.32,6.6 2,10c-0.99,0.33 -1.98,0.66 -3,1c-1.42259,-3.82321 -2.24042,-6.91281 -2,-11z"/>
  <path id="svg_46" fill="#0B0B0B" d="m150,228c0.33,0 0.66,0 1,0c0,2.64 0,5.28 0,8c0.66,0 1.32,0 2,0c0.33,0.99 0.66,1.98 1,3c-1.32,0 -2.64,0 -4,0c-3,-5.625 -3,-5.625 -3,-9c0.66,0 1.32,0 2,0c0.33,-0.66 0.66,-1.32 1,-2z"/>
  <path id="svg_47" fill="#070707" d="m274,402c2.97,0 5.94,0 9,0c0,0.66 0,1.32 0,2c0.99,0.33 1.98,0.66 3,1c-4.29,0 -8.58,0 -13,0c0.33,-0.99 0.66,-1.98 1,-3z"/>
  <path id="svg_48" fill="#080808" d="m298,222c0.99,0.33 1.98,0.66 3,1c-3.3,3.3 -6.6,6.6 -10,10c-0.66,-0.33 -1.32,-0.66 -2,-1c1.61595,-2.0412 3.28564,-4.04073 5,-6c0.66,0 1.32,0 2,0c0.66,-1.32 1.32,-2.64 2,-4z"/>
  <path id="svg_50" fill="#090909" d="m244,147c0.33,0.66 0.66,1.32 1,2c-8.42857,2.42857 -8.42857,2.42857 -13,1c4.0213,-2.68087 7.26031,-4.5799 12,-3z"/>
  <path id="svg_51" fill="#080808" d="m145.25,285.3125c0.86625,0.34031 0.86625,0.34031 1.75,0.6875c-0.78375,0.55688 -1.5675,1.11375 -2.375,1.6875c-2.71205,2.38919 -3.58634,3.91323 -4.625,7.3125c-2,-3 -2,-3 -1.875,-5c1.45514,-3.32604 3.40296,-5.20445 7.125,-4.6875z"/>
  <path id="svg_52" fill="#070707" d="m101,209c3.16717,1.58359 4.73268,2.45264 6.3125,5.6875c0.22687,0.76312 0.45375,1.52625 0.6875,2.3125c-0.66,0 -1.32,0 -2,0c-0.33,0.66 -0.66,1.32 -1,2c0,-0.99 0,-1.98 0,-3c-0.66,0 -1.32,0 -2,0c-1.46063,-2.64739 -2,-3.89448 -2,-7z"/>
  <path id="svg_54" fill="#090909" d="m360,371c0.66,0.33 1.32,0.66 2,1c-1.80413,3.26461 -2.83395,4.8893 -6,7c-1.32,-0.33 -2.64,-0.66 -4,-1c2.64,-2.31 5.28,-4.62 8,-7z"/>
  <path id="svg_55" fill="#070707" d="m152,217c0.99,0.33 1.98,0.66 3,1c-0.99,2.97 -1.98,5.94 -3,9c-0.66,-0.66 -1.32,-1.32 -2,-2c0.30652,-2.9426 0.67271,-5.34542 2,-8z"/>
  <path id="svg_56" fill="#0F0F0F" d="m411,231c0.66,0 1.32,0 2,0c-1.31674,5.66198 -3.40589,7.74584 -8,11c-0.66,0 -1.32,0 -2,0c0,-0.66 0,-1.32 0,-2c1.14469,-0.61875 1.14469,-0.61875 2.3125,-1.25c3.28052,-2.13615 4.18684,-4.1958 5.6875,-7.75z"/>
  <path id="svg_57" fill="#0A0A0A" d="m212,218c1.32,0.33 2.64,0.66 4,1c0.125,2.875 0.125,2.875 0,6c-0.66,0.66 -1.32,1.32 -2,2c-1.85777,-3.13498 -2.2014,-5.37471 -2,-9z"/>
  <path id="svg_58" fill="#0D0D0D" d="m96,277c6.75,1.625 6.75,1.625 9,5c-0.99,0.33 -1.98,0.66 -3,1c-3.1875,-1.8125 -3.1875,-1.8125 -6,-4c0,-0.66 0,-1.32 0,-2z"/>
  <path id="svg_59" fill="#0B0B0B" d="m323,158c0.99,0 1.98,0 3,0c-0.1141,1.45923 -0.24166,2.91741 -0.375,4.375c-0.06961,0.81211 -0.13922,1.62422 -0.21094,2.46094c-0.41406,2.16406 -0.41406,2.16406 -2.41406,4.16406c-1.37432,-3.81757 -0.67975,-7.07255 0,-11z"/>
  <path id="svg_60" fill="#090909" d="m230,152c-2.93829,2.50298 -5.17903,3.46931 -9,4c0,-0.99 0,-1.98 0,-3c3.42633,-1.61799 5.38055,-2.34054 9,-1z"/>
  <path id="svg_61" fill="#0A0A0A" d="m413,284c2.375,0.25 2.375,0.25 5,1c1.3125,2.0625 1.3125,2.0625 2,4c-0.99,0.33 -1.98,0.66 -3,1c-2.1875,-1.25 -2.1875,-1.25 -4,-3c0,-0.99 0,-1.98 0,-3z"/>
  <path id="svg_65" fill="#0C0C0C" d="m188,363c1.29905,0.73714 2.58901,1.49031 3.875,2.25c0.7193,0.41766 1.43859,0.83531 2.17969,1.26563c2.15405,1.64365 2.93672,3.00004 3.94531,5.48437c-0.99,0 -1.98,0 -3,0c-0.33,-1.32 -0.66,-2.64 -1,-4c-0.61875,-0.0825 -1.2375,-0.165 -1.875,-0.25c-2.125,-0.75 -2.125,-0.75 -3.25781,-2.79687c-0.28617,-0.64454 -0.57235,-1.28907 -0.86719,-1.95313z"/>
  <path id="svg_66" fill="#09090E" d="m407,352c0.99,0.33 1.98,0.66 3,1c-0.78484,1.4828 -1.57809,2.96115 -2.375,4.4375c-0.44086,0.82371 -0.88172,1.64742 -1.33594,2.49609c-1.28906,2.06641 -1.28906,2.06641 -3.28906,3.06641c1.21257,-3.72433 2.5086,-7.37803 4,-11z"/>
  <path id="svg_67" fill="#0D0D0D" d="m411,284c-0.55688,0.22688 -1.11375,0.45375 -1.6875,0.6875c-2.94497,1.67147 -4.99407,3.86526 -7.3125,6.3125c-0.33,-1.32 -0.66,-2.64 -1,-4c3.31848,-3.06321 5.5515,-3.30331 10,-3z"/>
  <path id="svg_68" fill="#0B0B0B" d="m202,276c2.5,1.8125 2.5,1.8125 5,4c0,0.99 0,1.98 0,3c-3.3672,-1.39333 -4.98595,-2.97893 -7,-6c0.66,-0.33 1.32,-0.66 2,-1z"/>
  <path id="svg_69" fill="#090909" d="m398,267c0.66,0.33 1.32,0.66 2,1c-1.47692,6.64615 -1.47692,6.64615 -4.125,8.4375c-0.61875,0.18562 -1.2375,0.37125 -1.875,0.5625c0.28875,-0.53625 0.5775,-1.0725 0.875,-1.625c1.29212,-2.7278 2.21059,-5.50113 3.125,-8.375z"/>
  <path id="svg_70" fill="#070707" d="m390,326c0.99,0 1.98,0 3,0c-0.75,5.75 -0.75,5.75 -3,8c-0.79953,-3.28696 -1.09659,-4.71023 0,-8z"/>
  <path id="svg_72" fill="#0D0D0D" d="m249,398c6.15234,0.58594 6.15234,0.58594 8,1c0.33,0.66 0.66,1.32 1,2c-2.31,0.33 -4.62,0.66 -7,1c0,-0.66 0,-1.32 0,-2c-0.66,0 -1.32,0 -2,0c0,-0.66 0,-1.32 0,-2z"/>
  <path id="svg_75" fill="#070707" d="m70,53c0.55348,2.07554 1,3.84366 1,6c-1.98,0 -3.96,0 -6,0c0.33,-0.99 0.66,-1.98 1,-3c0.99,-0.33 1.98,-0.66 3,-1c0.33,-0.66 0.66,-1.32 1,-2z"/>
  <path id="svg_76" fill="#090909" d="m145,338c0.66,0 1.32,0 2,0c0.14438,0.78375 0.28875,1.5675 0.4375,2.375c0.44049,2.58921 0.44049,2.58921 1.5625,4.625c-0.99,0 -1.98,0 -3,0c-0.66,-1.98 -1.32,-3.96 -2,-6c0.33,-0.33 0.66,-0.66 1,-1z"/>
 </g>
</svg>